<?xml version="1.0" encoding="UTF-8" standalone="no"?>
<svg version="1.1" xmlns="http://www.w3.org/2000/svg" xmlns:xlink="http://www.w3.org/1999/xlink" width="486.673" height="486.669">
	<path id="dp_path001" transform="matrix(1,0,0,1,371.333,43.3347)" fill="white" stroke="none" stroke-width="0" d="M 0,0 L 16,0 L 16,16 L 0,16 Z "/>
	<path id="dp_path002" transform="matrix(1,0,0,1,339.333,43.3347)" fill="white" stroke="none" stroke-width="0" d="M 0,0 L 16,0 L 16,16 L 0,16 Z "/>
	<path id="dp_path003" transform="matrix(1,0,0,1,3.33333,3.33467)" fill="white" stroke="white" stroke-width="6.66667" d="M 368,144.32 L 368,96 L 376,96 C 397.944,96 416,77.944 416,56 L 416,40 C 416,18.056 397.944,0 376,0 L 216,0 C 194.056,0 176,18.056 176,40 L 176,56 C 176,77.944 194.056,96 216,96 L 224,96 L 224,136.32 C 172.32,140.96 135.6,189.84 120.4,240 L 8,240 C 3.61067,240 0,243.611 0,248 L 0,280 C 0,284.389 3.61067,288 8,288 L 24,288 L 24,440 C 24,461.944 42.056,480 64,480 L 176,480 C 190.572,479.947 204.004,471.925 210.96,459.12 C 237.233,472.835 266.435,479.997 296.072,479.997 C 396.972,479.997 480,396.969 480,296.069 C 480,296.047 480,296.023 480,296 C 480,217.04 429.52,149.76 368,144.32 Z M 216,80 C 202.849,79.9613 192.039,69.1507 192,56 L 192,40 C 192.039,26.8493 202.849,16.0387 216,16 L 376,16 C 389.151,16.0387 399.961,26.8493 400,40 L 400,56 C 399.961,69.1507 389.151,79.9613 376,80 Z M 200,440 C 199.961,453.151 189.151,463.961 176,464 L 64,464 C 50.8493,463.961 40.0387,453.151 40,440 L 40,288 L 200,288 Z M 16,272 L 16,256 L 224,256 L 224,272 Z M 296,464 C 267.925,464.015 240.295,456.941 215.68,443.44 C 215.76,442.32 216,441.2 216,440 L 216,319.04 C 244.74,322.4 273.831,316.9 299.36,303.28 C 318.004,293.268 338.837,288.019 360,288 C 378.456,287.231 396.673,292.452 411.92,302.88 C 426.832,312.932 444.201,318.74 462.16,319.68 C 450.363,402.011 379.172,463.844 296,464 Z M 420.08,289.12 C 402.389,277.165 381.335,271.165 360,272 C 336.519,271.98 313.387,277.723 292.64,288.72 C 273.996,298.732 253.163,303.981 232,304 C 226.648,303.971 221.304,303.597 216,302.88 L 216,288 L 232,288 C 236.389,288 240,284.389 240,280 L 240,248 C 240,243.611 236.389,240 232,240 L 137.2,240 C 152.16,194.72 185.92,152 232,152 C 236.389,152 240,148.389 240,144 L 240,96 L 352,96 L 352,152 C 352,156.389 355.611,160 360,160 C 416.4,160 464,222.32 464,296 C 464,298.64 463.76,301.12 463.6,303.68 C 448.023,302.971 432.948,297.928 420.08,289.12 Z "/>
	<path id="dp_path004" transform="matrix(1,0,0,1,275.333,211.335)" fill="white" stroke="none" stroke-width="0" d="M 0,0 L 48,0 L 48,16 L 0,16 Z "/>
	<path id="dp_path005" transform="matrix(1,0,0,1,275.333,243.335)" fill="white" stroke="none" stroke-width="0" d="M 0,0 L 48,0 L 48,16 L 0,16 Z "/>
	<path id="dp_path006" transform="matrix(1,0,0,1,275.333,147.335)" fill="white" stroke="none" stroke-width="0" d="M 0,0 L 48,0 L 48,16 L 0,16 Z "/>
	<path id="dp_path007" transform="matrix(1,0,0,1,275.333,179.335)" fill="white" stroke="none" stroke-width="0" d="M 0,0 L 48,0 L 48,16 L 0,16 Z "/>
	<path id="dp_path008" transform="matrix(1,0,0,1,155.333,307.335)" fill="white" stroke="none" stroke-width="0" d="M 0,0 L 32,0 L 32,16 L 0,16 Z "/>
	<path id="dp_path009" transform="matrix(1,0,0,1,139.333,339.335)" fill="white" stroke="none" stroke-width="0" d="M 0,0 L 48,0 L 48,16 L 0,16 Z "/>
	<path id="dp_path010" transform="matrix(1,0,0,1,155.333,371.335)" fill="white" stroke="none" stroke-width="0" d="M 0,0 L 32,0 L 32,16 L 0,16 Z "/>
	<path id="dp_path011" transform="matrix(1,0,0,1,155.333,435.335)" fill="white" stroke="none" stroke-width="0" d="M 0,0 L 32,0 L 32,16 L 0,16 Z "/>
	<path id="dp_path012" transform="matrix(1,0,0,1,139.333,403.335)" fill="white" stroke="none" stroke-width="0" d="M 0,0 L 48,0 L 48,16 L 0,16 Z "/>
	<path id="dp_path013" transform="matrix(1,0,0,1,3.33333,123.335)" fill="white" stroke="none" stroke-width="0" d="M 32,64 C 49.5547,64 64,49.5547 64,32 C 64,14.4453 49.5547,0 32,0 C 14.4453,0 0,14.4453 0,32 C 0,49.5547 14.4453,64 32,64 Z M 32,16 C 40.7773,16 48,23.2227 48,32 C 48,40.7773 40.7773,48 32,48 C 23.2227,48 16,40.7773 16,32 C 16,23.2227 23.2227,16 32,16 Z "/>
	<path id="dp_path014" transform="matrix(1,0,0,1,67.3333,179.335)" fill="white" stroke="none" stroke-width="0" d="M 24,48 C 37.1667,48 48,37.1667 48,24 C 48,10.8333 37.1667,0 24,0 C 10.8333,0 0,10.8333 0,24 C 0,37.1667 10.8333,48 24,48 Z M 24,16 C 28.3893,16 32,19.6107 32,24 C 32,28.3893 28.3893,32 24,32 C 19.6107,32 16,28.3893 16,24 C 16,19.6107 19.6107,16 24,16 Z "/>
	<path id="dp_path015" transform="matrix(1,0,0,1,91.3333,107.335)" fill="white" stroke="none" stroke-width="0" d="M 32,64 C 49.5547,64 64,49.5547 64,32 C 64,14.4453 49.5547,0 32,0 C 14.4453,0 0,14.4453 0,32 C 0,49.5547 14.4453,64 32,64 Z M 32,16 C 40.7773,16 48,23.2227 48,32 C 48,40.7773 40.7773,48 32,48 C 23.2227,48 16,40.7773 16,32 C 16,23.2227 23.2227,16 32,16 Z "/>
</svg>