<?xml version="1.0" encoding="UTF-8" standalone="no"?>
<svg version="1.1" xmlns="http://www.w3.org/2000/svg" xmlns:xlink="http://www.w3.org/1999/xlink" width="767.993" height="767.997">
	<path id="dp_path001" transform="matrix(1,0,0,1,63.9987,76.8027)" fill="white" stroke="none" stroke-width="0" d="M 0,0 C 55.4667,0 110.932,0 166.397,0 C 166.397,8.53467 166.397,17.0667 166.397,25.6 C 110.931,25.6 55.4653,25.6 0,25.6 C 0,17.0653 0,8.53333 0,0 Z "/>
	<path id="dp_path002" transform="matrix(1,0,0,1,63.9987,128.003)" fill="white" stroke="none" stroke-width="0" d="M 0,0 C 55.4667,0 110.932,0 166.397,0 C 166.397,8.53467 166.397,17.0667 166.397,25.6 C 110.931,25.6 55.4653,25.6 0,25.6 C 0,17.0653 0,8.53333 0,0 Z "/>
	<path id="dp_path003" transform="matrix(1,0,0,1,63.9987,179.203)" fill="white" stroke="none" stroke-width="0" d="M 0,0 C 38.4,0 76.8,0 115.199,0 C 115.199,8.53467 115.199,17.0667 115.199,25.6 C 76.7987,25.6 38.3987,25.6 0,25.6 C 0,17.0653 0,8.53333 0,0 Z "/>
	<path id="dp_path004" transform="matrix(1,0,0,1,63.9987,230.401)" fill="white" stroke="none" stroke-width="0" d="M 0,0 C 38.4,0 76.8,0 115.199,0 C 115.199,8.53467 115.199,17.0667 115.199,25.6 C 76.7987,25.6 38.3987,25.6 0,25.6 C 0,17.0653 0,8.53333 0,0 Z "/>
	<path id="dp_path005" transform="matrix(1,0,0,1,0,742.395)" fill="white" stroke="none" stroke-width="0" d="M 0,0 C 255.999,0 511.995,0 767.991,0 C 767.991,8.53467 767.991,17.0667 767.991,25.6 C 511.992,25.6 255.996,25.6 0,25.6 C 0,17.0653 0,8.53333 0,0 Z "/>
	<path id="dp_path006" transform="matrix(1,0,0,1,50.1107,0)" fill="white" stroke="none" stroke-width="0" d="M 690.936,109.481 L 639.736,7.08267 C 636.58,0.756 628.895,-1.81333 622.568,1.344 C 622.565,1.34533 622.561,1.34667 622.559,1.348 L 520.16,52.548 C 513.833,55.708 511.265,63.3987 514.425,69.7253 S 525.277,78.6187 531.603,75.4587 L 605.765,38.404 L 585.529,96.1827 C 496.581,349.504 267.481,527.223 0,550.397 L 2.176,575.997 C 279.736,551.952 517.456,367.512 609.708,104.631 L 630.367,45.5973 L 668.024,120.924 C 671.184,127.251 678.875,129.819 685.201,126.659 C 691.529,123.499 694.096,115.809 690.936,109.481 Z "/>
	<path id="dp_path007" transform="matrix(1,0,0,1,51.1987,614.396)" fill="white" stroke="none" stroke-width="0" d="M 102.399,0 L 12.8,0 C 5.73067,0 0,5.732 0,12.8 L 0,89.6 C 0,96.668 5.73067,102.399 12.8,102.399 L 102.399,102.399 C 109.468,102.399 115.199,96.668 115.199,89.6 L 115.199,12.8 C 115.199,5.732 109.468,0 102.399,0 Z M 89.5987,76.8 L 25.6,76.8 L 25.6,25.6 L 89.5987,25.6 Z "/>
	<path id="dp_path008" transform="matrix(1,0,0,1,191.997,575.997)" fill="white" stroke="none" stroke-width="0" d="M 102.399,0 L 12.8,0 C 5.73067,0 0,5.73067 0,12.8 L 0,127.999 C 0,135.067 5.73067,140.797 12.8,140.797 L 102.399,140.797 C 109.467,140.797 115.199,135.067 115.199,127.999 L 115.199,12.8 C 115.199,5.73067 109.467,0 102.399,0 Z M 89.5987,115.199 L 25.6,115.199 L 25.6,25.6 L 89.5987,25.6 Z "/>
	<path id="dp_path009" transform="matrix(1,0,0,1,332.795,511.997)" fill="white" stroke="none" stroke-width="0" d="M 102.4,0 L 12.8,0 C 5.732,0 0,5.732 0,12.8 L 0,191.999 C 0,199.067 5.732,204.797 12.8,204.797 L 102.4,204.797 C 109.468,204.797 115.199,199.067 115.199,191.999 L 115.199,12.8 C 115.199,5.732 109.468,0 102.4,0 Z M 89.6,179.199 L 25.6,179.199 L 25.6,25.6 L 89.6,25.6 Z "/>
	<path id="dp_path010" transform="matrix(1,0,0,1,473.593,422.399)" fill="white" stroke="none" stroke-width="0" d="M 102.399,0 L 12.8,0 C 5.732,0 0,5.732 0,12.8 L 0,281.597 C 0,288.665 5.732,294.396 12.8,294.396 L 102.399,294.396 C 109.468,294.396 115.199,288.665 115.199,281.597 L 115.199,12.8 C 115.199,5.732 109.468,0 102.399,0 Z M 89.5987,268.797 L 25.6,268.797 L 25.6,25.6 L 89.5987,25.6 Z "/>
	<path id="dp_path011" transform="matrix(1,0,0,1,614.392,243.201)" fill="white" stroke="none" stroke-width="0" d="M 102.399,0 L 12.8,0 C 5.73067,0 0,5.73067 0,12.8 L 0,460.795 C 0,467.863 5.73067,473.593 12.8,473.593 L 102.399,473.593 C 109.467,473.593 115.199,467.863 115.199,460.795 L 115.199,12.8 C 115.199,5.73067 109.467,0 102.399,0 Z M 89.5987,447.995 L 25.6,447.995 L 25.6,25.6 L 89.5987,25.6 Z "/>
</svg>