<?xml version="1.0" encoding="UTF-8" standalone="no"?>
<svg version="1.1" xmlns="http://www.w3.org/2000/svg" xmlns:xlink="http://www.w3.org/1999/xlink" width="769.285" height="570.611">
	<path id="dp_path001" transform="matrix(1,0,0,1,0.618667,0.618667)" fill="white" stroke="white" stroke-width="1.33333" d="M 764.403,157.272 L 615.453,8.32133 C 610.664,3.53067 602.899,3.53067 598.107,8.32133 L 523.632,82.796 C 521.332,85.096 520.041,88.216 520.041,91.4693 C 520.041,94.7227 521.332,97.8427 523.632,100.143 L 531.061,107.572 L 513.988,124.641 C 502.905,135.72 485.708,138.744 471.197,132.157 C 457.592,125.983 442.468,122.72 427.456,122.72 C 409.631,122.72 392.212,127.195 376.735,135.669 C 370.28,134.08 363.656,133.265 356.967,133.265 C 347.292,133.265 337.789,134.935 328.723,138.229 C 314.247,143.489 298.729,140.229 288.219,129.721 L 257.564,99.0653 L 261.215,95.4147 C 263.513,93.1147 264.805,89.9947 264.805,86.7413 C 264.805,83.488 263.513,80.368 261.215,78.068 L 186.74,3.59333 C 181.948,-1.19733 174.184,-1.19733 169.392,3.59333 L 3.592,169.393 C -1.19733,174.185 -1.19733,181.951 3.592,186.74 L 78.0653,261.215 C 80.3667,263.515 83.4853,264.807 86.74,264.807 S 93.112,263.515 95.4147,261.215 L 99.856,256.773 L 121.477,278.393 C 126.932,283.849 130.549,290.66 131.933,298.091 C 139.112,336.615 157.563,371.637 185.288,399.379 L 189.36,403.451 C 181.54,411.688 177.237,422.419 177.237,433.819 C 177.237,445.609 181.831,456.696 190.168,465.035 C 198.775,473.641 210.077,477.944 221.384,477.944 C 222.12,477.944 222.853,477.924 223.591,477.887 C 222.993,489.915 227.277,502.141 236.443,511.309 C 244.78,519.648 255.867,524.239 267.659,524.239 C 267.987,524.239 268.313,524.223 268.643,524.215 C 268.391,535.839 272.679,547.543 281.529,556.395 C 289.867,564.735 300.953,569.324 312.747,569.324 C 324.539,569.324 335.623,564.732 343.963,556.395 C 344.665,555.692 345.327,554.967 345.973,554.232 C 350.316,555.745 354.908,556.551 359.551,556.551 C 370.58,556.551 380.943,552.253 388.712,544.457 C 392.848,540.324 395.985,535.46 398.029,530.164 L 399.284,531.42 C 407.323,539.459 417.881,543.479 428.44,543.479 C 438.997,543.479 449.556,539.459 457.595,531.42 C 461.867,527.148 465.077,522.103 467.111,516.603 C 474.307,521.836 482.825,524.457 491.348,524.457 C 501.907,524.457 512.471,520.439 520.516,512.403 C 528.303,504.616 532.592,494.257 532.592,483.236 C 532.592,479.905 532.192,476.64 531.432,473.483 C 539.288,471.887 546.505,468.031 552.297,462.231 C 560.083,454.444 564.372,444.091 564.372,433.076 C 564.372,424.399 561.699,416.137 556.763,409.211 L 566.603,399.371 C 594.651,371.309 613.18,335.847 620.189,296.815 C 621.364,290.28 624.601,284.209 629.553,279.255 L 666.151,242.657 L 672.584,249.091 C 674.98,251.487 678.119,252.684 681.259,252.684 C 684.396,252.684 687.537,251.487 689.933,249.091 L 764.408,174.617 C 766.707,172.317 767.999,169.197 767.999,165.944 S 766.703,159.573 764.403,157.272 Z M 86.74,235.197 L 29.6107,178.068 L 178.064,29.616 L 235.195,86.744 Z M 235.252,447.692 C 227.607,455.336 215.165,455.339 207.513,447.692 C 203.808,443.985 201.768,439.061 201.768,433.821 C 201.768,428.583 203.809,423.657 207.515,419.952 C 211.339,416.129 216.359,414.216 221.383,414.216 C 226.404,414.216 231.429,416.129 235.251,419.952 C 242.899,427.599 242.899,440.043 235.252,447.692 Z M 281.524,493.964 C 277.823,497.669 272.897,499.708 267.656,499.708 C 262.417,499.708 257.492,497.667 253.788,493.964 C 246.14,486.316 246.14,473.872 253.788,466.224 C 257.612,462.4 262.632,460.488 267.657,460.488 C 272.677,460.488 277.703,462.4 281.524,466.224 C 289.175,473.871 289.175,486.316 281.524,493.964 Z M 326.611,539.048 C 322.907,542.753 317.981,544.793 312.744,544.793 C 307.504,544.793 302.579,542.752 298.875,539.048 C 291.227,531.401 291.227,518.957 298.875,511.309 C 302.699,507.485 307.719,505.573 312.744,505.573 C 317.764,505.573 322.789,507.485 326.611,511.309 C 334.26,518.957 334.26,531.401 326.611,539.048 Z M 534.941,444.891 C 531.789,448.047 527.596,449.785 523.139,449.785 S 514.488,448.047 511.329,444.884 L 392.335,325.916 C 387.541,321.127 379.777,321.128 374.987,325.92 C 370.199,330.709 370.201,338.476 374.991,343.265 L 503.167,471.428 C 506.32,474.58 508.056,478.775 508.056,483.236 C 508.056,487.705 506.319,491.904 503.171,495.052 C 496.651,501.567 486.047,501.568 479.537,495.057 L 457.913,473.433 C 457.793,473.308 457.676,473.183 457.551,473.06 C 457.515,473.024 457.475,472.992 457.437,472.956 L 358.037,373.556 C 353.245,368.767 345.481,368.767 340.691,373.556 C 335.899,378.345 335.899,386.112 340.691,390.901 L 440.409,490.62 C 443.457,493.744 445.136,497.879 445.136,502.264 C 445.136,506.725 443.397,510.919 440.244,514.072 C 433.737,520.584 423.143,520.584 416.631,514.072 L 308.503,405.944 C 303.711,401.153 295.947,401.153 291.156,405.944 C 286.365,410.733 286.365,418.5 291.156,423.289 L 371.307,503.441 C 371.329,503.464 371.347,503.489 371.371,503.511 C 374.523,506.656 376.256,510.843 376.256,515.299 C 376.256,519.759 374.519,523.953 371.353,527.119 C 368.204,530.275 364.013,532.013 359.548,532.013 C 358.469,532.013 357.415,531.903 356.383,531.708 C 358.368,518.339 354.229,504.228 343.96,493.957 C 335.621,485.62 324.535,481.028 312.744,481.028 C 312.415,481.028 312.088,481.044 311.76,481.052 C 312.012,469.428 307.725,457.724 298.873,448.872 C 290.533,440.535 279.448,435.943 267.656,435.943 C 266.917,435.943 266.184,435.96 265.452,435.996 C 266.041,423.975 261.757,411.76 252.597,402.597 C 241.447,391.448 225.771,387.532 211.431,390.827 L 202.635,382.031 C 178.425,357.811 162.319,327.229 156.051,293.592 C 153.753,281.272 147.797,270.016 138.825,261.043 L 117.203,239.421 L 240.217,116.407 L 270.875,147.064 C 282.659,158.847 298.703,165.153 315.135,165.153 C 322.493,165.153 329.935,163.887 337.104,161.281 C 340.58,160.017 344.176,159.109 347.82,158.533 L 271.872,234.483 C 262.58,243.773 257.461,256.128 257.461,269.269 C 257.461,282.409 262.58,294.763 271.871,304.053 C 281.461,313.645 294.055,318.439 306.655,318.437 C 319.252,318.437 331.851,313.64 341.443,304.053 L 379.588,265.909 L 389.912,276.241 C 389.915,276.244 389.917,276.245 389.92,276.248 L 390.349,276.677 L 390.761,277.091 C 390.763,277.092 390.765,277.095 390.769,277.096 L 390.776,277.104 C 390.895,277.22 391.011,277.332 391.125,277.443 L 534.947,421.263 C 538.101,424.416 539.836,428.611 539.836,433.071 C 539.836,437.54 538.101,441.733 534.941,444.891 Z M 612.201,261.911 C 603.691,270.423 598.101,280.995 596.041,292.481 C 589.921,326.561 573.74,357.527 549.252,382.028 L 539.825,391.456 L 462.229,313.86 C 463.916,313.984 465.609,314.067 467.315,314.067 C 475.172,314.067 483.212,312.689 491.216,309.415 C 497.485,306.849 500.488,299.688 497.924,293.419 C 495.359,287.151 488.203,284.147 481.928,286.711 C 450.359,299.628 412.511,264.031 408.297,259.929 C 408.227,259.86 408.156,259.792 408.084,259.727 L 407.649,259.291 C 407.648,259.289 407.647,259.289 407.645,259.288 L 407.265,258.911 C 407.264,258.909 407.261,258.905 407.259,258.904 L 396.932,248.571 L 408.641,236.86 C 413.433,232.069 413.433,224.304 408.643,219.513 C 403.852,214.725 396.087,214.724 391.297,219.513 L 370.941,239.868 C 370.935,239.876 370.925,239.883 370.917,239.891 C 370.911,239.897 370.903,239.907 370.895,239.915 L 324.096,286.715 C 314.477,296.331 298.833,296.328 289.217,286.715 C 284.56,282.056 281.996,275.863 281.996,269.275 C 281.996,262.687 284.56,256.493 289.219,251.836 L 369.997,171.056 C 374.491,166.563 379.485,162.611 384.855,159.3 C 397.609,151.416 412.34,147.249 427.456,147.249 C 438.995,147.249 450.613,149.755 461.06,154.496 C 484.823,165.277 513.065,160.255 531.336,141.989 L 548.411,124.917 L 648.803,225.311 Z M 681.255,223.076 L 549.651,91.472 L 606.781,34.344 L 738.384,165.947 Z "/>
	<path id="dp_path002" transform="matrix(1,0,0,1,681.964,163.679)" fill="white" stroke="white" stroke-width="1.33333" d="M 24.5307,12.2653 C 24.5307,5.492 19.0387,0 12.2653,0 C 5.492,0 0,5.492 0,12.2653 C 0,19.0387 5.492,24.5307 12.2653,24.5307 C 19.0387,24.5307 24.5307,19.0387 24.5307,12.2653 Z "/>
	<path id="dp_path003" transform="matrix(1,0,0,1,68.704,175.796)" fill="white" stroke="white" stroke-width="1.33333" d="M 24.5307,12.2653 C 24.5307,5.492 19.0387,0 12.2653,0 C 5.492,0 0,5.492 0,12.2653 C 0,19.0387 5.492,24.5307 12.2653,24.5307 C 19.0387,24.5307 24.5307,19.0387 24.5307,12.2653 Z "/>
</svg>