<?xml version="1.0" encoding="UTF-8" standalone="no"?>
<svg version="1.1" xmlns="http://www.w3.org/2000/svg" xmlns:xlink="http://www.w3.org/1999/xlink" width="288.04" height="233.084">
	<path id="dp_path001" transform="matrix(1,0,0,1,0,-0.0253333)" fill="white" stroke="none" stroke-width="0" d="M 206.172,0.192 C 200.517,-0.096 194.809,-0.178667 189.039,0.837333 C 165.253,5.02533 146.016,24.0347 141.465,47.756 C 139.901,55.9067 140.733,64.1947 141.763,72.308 C 103.828,69.0013 70.1373,57.1747 41.5267,32.1933 C 33.9387,25.568 26.9373,17.6627 20.2627,10.7253 C 9.24133,28.9373 9.656,54.2627 21.4667,72.2867 C 25.8227,78.9347 31.7013,84.188 37.872,89.2653 C 28.6573,88.596 20.4507,86.0987 11.8093,82.0133 C 12.812,104.725 22.1893,123.651 42.9067,134.884 C 47.7213,137.495 52.944,139.117 58.2573,140.805 C 52.328,141.873 46.848,142.516 41.024,142.511 C 38.7013,142.508 34.468,141.265 32.448,142.159 C 32.6947,143.857 34.2507,146.697 35.2867,148.923 C 41.8267,162.972 53.7067,173.897 67.8507,179.36 C 73.7693,181.645 80.6547,182.164 87.1213,183.139 C 58.8773,203.229 35.2947,208.941 0.808,207.235 C 0.538667,207.221 0.269333,207.208 0,207.193 C 1.68267,208.248 3.35867,209.301 5.04,210.356 C 8.46667,212.505 12.1293,214.297 15.7893,216.071 C 27.0613,221.532 37.9133,225.512 50.06,228.665 C 65.0507,232.557 79.808,233.485 95.2667,233.08 C 102.592,232.888 109.948,232.856 117.136,231.965 C 130.867,230.264 144.979,225.981 158.181,220.755 C 208.425,200.864 244.832,150.689 255.444,98.372 C 257.269,89.3707 258.048,80.1827 258.505,71.016 C 258.651,68.0907 258.275,59.4133 259.293,57.8267 C 260.467,55.9987 267.581,51.22 269.721,49.2707 C 276.401,43.1853 282.533,35.6387 287.564,28.4093 C 287.724,28.18 287.88,27.9547 288.039,27.7267 C 284.347,28.8493 280.929,30.372 277.309,31.4747 C 273.815,32.5387 270.283,33.896 266.72,34.6907 C 262.891,35.5453 258.849,35.8333 254.969,36.412 C 268.807,27.6453 273.496,19.0173 280.339,4.11067 C 274.473,7.108 268.54,10.204 262.443,12.5627 C 258.749,13.992 254.831,14.9973 251.059,16.2027 C 248.895,16.8947 245.653,18.3467 243.399,18.1933 C 241.868,18.0893 234.153,10.66 231.636,9.03067 C 223.803,3.96 214.997,1.76533 206.172,0.192 Z "/>
</svg>