<?xml version="1.0" encoding="UTF-8" standalone="no"?>
<svg version="1.1" xmlns="http://www.w3.org/2000/svg" xmlns:xlink="http://www.w3.org/1999/xlink" width="120.657" height="221.253">
	<path id="dp_path001" transform="matrix(1,0,0,1,-0.00133333,-0.044)" fill="white" stroke="none" stroke-width="0" d="M 118.179,0.738667 C 104.252,0.394667 89.7147,-0.821333 76.0987,0.897333 C 68.18,1.89467 60.5293,5.32667 54.0587,10.1747 C 31.876,26.8013 33.9387,54.568 33.816,79.6027 C 28.7173,79.6027 5.72,78.592 2.81333,80.128 C 1.34133,80.9053 0.765333,83.4293 0.529333,85.2773 C -0.0333333,89.704 -0.537333,119.717 1.18933,122.413 C 1.57067,123.008 2.98,124.281 3.616,124.58 C 7.68133,126.485 27.5413,125.223 33.816,125.315 C 33.816,149.263 33.8413,173.224 34.0227,197.088 C 34.056,201.452 32.688,214.567 34.188,217.96 C 34.4147,218.471 35.2707,219.845 35.7293,220.139 C 37.66,221.369 76.0013,221.9 78.8933,220.425 C 82.244,218.719 80.4707,201.863 80.52,197.519 C 80.792,173.348 80.8213,149.351 80.8213,125.315 C 87.164,125.315 113.144,127.091 117.183,124.156 C 120.127,122.017 120.052,82.3733 117.18,80.492 C 113.967,78.3867 86.6253,79.6027 80.8213,79.6027 C 80.8213,70.7053 78.2853,52.304 84.56,47.0213 C 92.836,40.056 114.001,46.4533 118.947,41.7547 C 121.028,39.7773 120.219,34.8253 120.273,32.0547 C 120.351,28.184 120.56,24.2653 120.488,20.4067 C 120.371,14.048 121.825,5.17467 118.179,0.738667 Z "/>
</svg>