<?xml version="1.0" encoding="UTF-8" standalone="no"?>
<svg version="1.1" xmlns="http://www.w3.org/2000/svg" xmlns:xlink="http://www.w3.org/1999/xlink" width="233.696" height="234.353">
	<path id="dp_path001" fill="white" stroke="none" stroke-width="0" d="M 43.1107,2.41067 C 39.04,1.02533 35.112,-0.0226667 31.0907,0 C 26.1467,0.028 20.9933,1.69733 16.624,4.18 C -5.844,16.9467 -6.05867,50.424 19.088,60.392 C 57.2093,75.5027 81.136,21.3227 43.1107,2.41067 Z M 38.7267,9.86933 C 35.4107,9.208 32.156,8.51867 28.8027,8.84133 C 3.36,11.2893 0.405333,48.2507 26.3413,54.0267 C 43.1813,57.7773 55.5133,44.6427 53.3093,27.8547 C 52.5693,22.2227 49.956,16.788 45.376,13.276 C 43.3907,11.7547 41.1013,10.8387 38.7267,9.86933 Z M 189.308,72.396 C 173.429,70.304 156.165,70.4627 141.704,79.3387 C 138.865,81.0813 136.188,83.3133 133.527,85.1613 C 132.399,82.7373 133.459,78.744 130.496,76.264 C 128.799,74.8427 126.085,74.156 124.012,73.92 C 119.035,73.3533 113.833,74.0467 108.869,74.1853 C 102.264,74.3693 95.5747,74.14 89.06,74.6 C 87.5013,74.7107 85.64,74.5627 84.1307,74.9453 C 83.3293,75.148 81.696,75.7933 81.0773,76.3307 C 80.004,77.264 79.6347,79.2173 79.5987,80.5573 C 78.5387,120.004 78.752,159.132 78.9493,198.659 C 78.9893,206.728 78.6773,214.909 79.2507,222.941 C 79.3853,224.832 79.2667,226.971 79.6747,228.816 C 80.0053,230.311 80.9693,232.187 82.52,233.011 C 85.8387,234.773 106.088,234.135 111.135,234.055 C 115.752,233.981 131.287,234.955 133.579,231.571 C 135.253,229.099 134.656,218.423 134.665,214.875 C 134.703,200.825 134.62,186.74 134.829,172.709 C 135.015,160.268 133.683,141.985 139.661,131.615 C 143.188,125.497 149.752,121.852 157.073,121.295 C 164.023,120.765 170.24,123.464 173.631,129.215 C 175.715,132.749 176.655,137.184 177.064,141.168 C 177.765,147.991 177.271,155.159 177.373,162.02 C 177.593,176.713 177.785,191.404 177.912,206.119 C 177.976,213.549 177.183,221.796 178.479,228.944 C 178.715,230.245 179.052,232.153 180.323,232.931 C 183.2,234.691 198.717,234.025 203.163,234.048 C 209.017,234.077 227.496,235.12 231.663,233.177 C 232.795,232.649 233.081,231.128 233.269,230.067 C 233.707,227.601 233.437,224.791 233.516,222.287 C 233.729,215.481 233.681,208.58 233.695,201.725 C 233.725,186.152 233.819,170.497 233.664,155.003 C 233.481,136.744 234.152,118.313 226.648,101.644 C 221.116,89.356 211.188,79.1333 198.116,74.62 C 195.287,73.6427 192.207,73.1387 189.308,72.396 Z M 55.9653,76.1053 C 50.4893,73.2987 36.8027,74.0213 29.616,74.1453 C 25.416,74.2173 9.43733,73.884 6.60533,75.1227 C 6.08,75.352 5.19467,76.2507 4.83067,76.696 C 4.37333,77.256 3.824,78.3853 3.60533,79.0733 C 2.89467,81.3107 3.464,84.7733 3.40533,87.1347 C 3.22133,94.556 3.02267,101.945 2.98533,109.412 C 2.868,132.829 2.75333,156.204 2.87067,179.716 C 2.92133,189.944 2.96133,200.172 2.99867,210.399 C 3.02,216.329 2.39467,223.025 3.67467,228.816 C 4.00533,230.311 4.96933,232.187 6.52,233.011 C 9.912,234.813 49.172,234.467 54.2107,233.396 C 55.3827,233.147 56.864,232.625 57.5787,231.571 C 59.9013,228.143 58.6773,124.193 58.584,111.005 C 58.5387,104.676 58.5027,98.3467 58.4613,92.0173 C 58.4347,87.9253 58.8587,81.8573 57.5867,78.2213 C 57.2653,77.3013 56.6867,76.7107 55.9653,76.1053 Z M 193.465,82.2733 C 179.853,78.6987 167.309,77.924 154.125,83.5147 C 149.331,85.548 144.551,88.528 140.661,91.904 C 137.729,94.4493 134.152,99.816 131.281,101.517 C 130.471,101.999 129.109,102.127 128.117,101.848 C 122.5,100.271 124.488,87.8667 124.629,83.1227 C 112.343,83.1227 100.056,83.1227 87.7707,83.1227 C 87.7707,130.791 87.7707,178.457 87.7707,226.123 C 100.772,226.123 113.772,226.123 126.771,226.123 C 126.771,207.996 126.733,189.823 126.888,171.753 C 126.999,158.901 125.461,144.221 129.816,132.46 C 133.495,122.525 141.619,114.797 152.408,113.675 C 159.476,112.939 166.847,113.241 172.873,116.991 C 190.767,128.123 186.909,162.223 186.659,181.179 C 186.511,192.405 186.796,203.653 186.865,214.88 C 186.876,216.533 186.539,224.123 187.305,224.877 C 189.228,226.771 220.611,226.123 225.771,226.123 C 225.771,207.456 225.823,188.888 225.661,170.129 C 225.475,148.396 227.591,118.82 216.213,100.34 C 210.535,91.1173 203.02,86.448 193.465,82.2733 Z M 50.7707,154.623 C 50.7707,130.788 50.7707,106.955 50.7707,83.1227 C 37.7693,83.1227 24.7693,83.1227 11.7707,83.1227 C 11.7707,130.791 11.7707,178.457 11.7707,226.123 C 24.772,226.123 37.772,226.123 50.7707,226.123 C 50.7707,202.288 50.7707,178.455 50.7707,154.623 Z "/>
</svg>