<?xml version="1.0" encoding="UTF-8" standalone="no"?>
<svg version="1.1" xmlns="http://www.w3.org/2000/svg" xmlns:xlink="http://www.w3.org/1999/xlink" width="197.901" height="141.559">
	<path id="dp_path001" transform="matrix(1,0,0,1,-0.0186667,-0.004)" fill="#414143" stroke="none" stroke-width="0" d="M 186.951,0.352 C 144.645,0.246667 102.417,0.122667 59.9933,0.122667 C 48.9627,0.122667 37.9333,0.144 26.9013,0.144 C 22.9333,0.144 13.8773,-0.330667 10.496,0.450667 C 4.536,1.828 1.09333,7.572 0.278667,12.84 C 0.250667,13.0173 -0.08,14.4413 0.0186667,14.512 C 0.732,15.024 0.524,18.3747 0.872,19.252 C 2.54,23.4573 6.544,27.2707 11.3493,28.1413 C 13.7533,28.5773 16.6387,28.156 19.088,28.1627 C 24.7813,28.1787 30.4733,28.1973 36.168,28.212 C 54.9373,28.26 73.7093,28.3093 92.48,28.3747 C 113.821,28.4493 135.096,28.384 156.409,28.352 C 164.261,28.34 172.155,28.4493 179.972,28.1853 C 182.447,28.1013 185.343,28.4227 187.761,27.924 C 198.613,25.6867 201,10.836 193.812,3.97333 C 191.827,2.07733 189.412,1.23733 186.951,0.352 Z M 186.951,56.9453 C 144.645,56.84 102.417,56.716 59.9933,56.716 C 48.9627,56.716 37.9333,56.7373 26.9013,56.7373 C 22.9333,56.7373 13.8773,56.2627 10.496,57.044 C 4.536,58.4213 1.09333,64.1653 0.278667,69.4333 C 0.250667,69.6107 -0.08,71.0347 0.0186667,71.1053 C 0.732,71.6173 0.524,74.968 0.872,75.8453 C 2.54,80.0507 6.544,83.864 11.3493,84.7347 C 13.7533,85.1707 16.6387,84.7493 19.088,84.756 C 24.7813,84.772 30.4733,84.7907 36.168,84.8053 C 54.9373,84.8533 73.7093,84.9027 92.48,84.968 C 113.821,85.0427 135.096,84.9773 156.409,84.9453 C 164.261,84.9333 172.155,85.0427 179.972,84.7787 C 182.447,84.6947 185.343,85.016 187.761,84.5173 C 198.613,82.28 201.001,67.432 193.812,60.568 C 191.827,58.6733 189.411,57.8307 186.951,56.9453 Z M 186.951,113.539 C 144.645,113.433 102.417,113.309 59.9933,113.309 C 48.9627,113.309 37.9333,113.331 26.9013,113.331 C 22.9333,113.331 13.8773,112.856 10.496,113.637 C 4.536,115.015 1.09333,120.759 0.278667,126.027 C 0.250667,126.204 -0.08,127.628 0.0186667,127.699 C 0.732,128.211 0.524,131.561 0.872,132.439 C 2.54,136.643 6.54533,140.457 11.3493,141.328 C 13.7533,141.764 16.6387,141.343 19.088,141.349 C 24.7813,141.365 30.4733,141.384 36.168,141.399 C 54.9373,141.447 73.7093,141.496 92.48,141.561 C 113.821,141.636 135.096,141.571 156.409,141.539 C 164.263,141.527 172.155,141.632 179.972,141.372 C 182.447,141.289 185.343,141.611 187.761,141.112 C 198.612,138.875 201.001,124.025 193.812,117.161 C 191.827,115.267 189.411,114.424 186.951,113.539 Z "/>
</svg>