<?xml version="1.0" encoding="UTF-8" standalone="no"?>
<svg version="1.1" xmlns="http://www.w3.org/2000/svg" xmlns:xlink="http://www.w3.org/1999/xlink" width="253.336" height="259.331">
	<path id="dp_path001" transform="matrix(1,0,0,1,1.672,1.668)" fill="white" stroke="white" stroke-width="3.33333" d="M 248.896,184.197 C 247.195,177.86 243.659,172.332 238.744,168.18 C 244.344,146.719 243.689,124.319 236.764,102.932 C 228.979,78.8853 213.995,58.4267 193.433,43.7693 C 188.931,40.5587 182.672,41.5987 179.456,46.0933 C 176.24,50.5867 177.283,56.832 181.785,60.0413 C 198.824,72.1867 211.243,89.1453 217.697,109.081 C 223.171,125.984 223.923,143.641 219.965,160.653 C 208.276,159.969 196.62,165.725 190.376,176.503 C 186.109,183.868 184.973,192.449 187.18,200.667 C 189.388,208.889 194.676,215.761 202.072,220.015 C 217.26,228.753 236.859,223.621 245.7,208.361 C 249.968,200.996 251.103,192.413 248.896,184.197 Z M 228.353,198.351 C 225.071,204.017 217.769,205.964 212.08,202.691 C 212.08,202.691 212.08,202.691 212.08,202.691 C 209.325,201.107 207.357,198.549 206.536,195.491 C 205.716,192.439 206.139,189.251 207.724,186.513 C 212.991,177.424 226.795,179.143 229.541,189.373 C 230.36,192.425 229.939,195.615 228.353,198.351 Z M 17.1053,138.321 C 17.4373,138.353 17.7667,138.369 18.0933,138.369 C 23.188,138.369 27.5467,134.508 28.0533,129.343 C 30.0893,108.569 38.6173,89.376 52.716,73.8373 C 64.6773,60.656 79.6573,51.1733 96.4333,46.0813 C 101.685,56.5133 112.512,63.6933 124.997,63.6933 C 142.612,63.6933 156.941,49.4067 156.941,31.8467 S 142.612,0 124.997,0 C 109.356,0 96.3147,11.2667 93.5853,26.0853 C 72.132,31.9813 52.9893,43.7453 37.8627,60.4147 C 20.856,79.1573 10.568,102.319 8.10933,127.396 C 7.57067,132.892 11.5987,137.783 17.1053,138.321 Z M 124.997,19.9973 C 131.563,19.9973 136.903,25.3133 136.903,31.8467 S 131.561,43.696 124.997,43.696 C 118.429,43.696 113.091,38.3787 113.091,31.8467 C 113.091,25.3133 118.432,19.9973 124.997,19.9973 Z M 165.163,227.329 C 146.083,235.963 125.131,238.2 104.571,233.801 C 87.1467,230.073 71.4267,221.897 58.62,209.984 C 60.4853,207.16 61.9107,204.029 62.8133,200.667 C 65.02,192.451 63.8853,183.868 59.6173,176.503 C 50.8107,161.303 31.2387,156.075 15.9893,164.848 C 8.59333,169.103 3.30533,175.975 1.09733,184.197 C -1.108,192.413 0.0266667,200.996 4.29467,208.361 C 12.1307,221.887 28.4493,227.489 42.676,222.432 C 58.5253,237.999 78.32,248.637 100.371,253.355 C 124.681,258.555 149.98,256.155 173.437,245.543 C 178.477,243.263 180.711,237.337 178.425,232.307 C 176.14,227.279 170.201,225.049 165.163,227.329 Z M 43.4573,195.491 C 40.7467,205.589 26.9587,207.531 21.6413,198.352 C 20.0547,195.615 19.6333,192.425 20.452,189.373 C 21.2733,186.315 23.2427,183.759 25.996,182.173 C 31.6827,178.903 38.984,180.843 42.2693,186.513 C 43.856,189.251 44.2773,192.439 43.4573,195.491 Z "/>
</svg>