<?xml version="1.0" encoding="UTF-8" standalone="no"?>
<svg version="1.1" xmlns="http://www.w3.org/2000/svg" xmlns:xlink="http://www.w3.org/1999/xlink" width="967.808" height="967.807">
	<path id="dp_path001" transform="matrix(1,0,0,1,1.668,1.66667)" fill="white" stroke="white" stroke-width="3.33333" d="M 916.248,0 L 48.224,0 C 20.8107,0.878667 -0.729333,23.7253 0,51.16 L 0,752.588 C -0.729333,780 20.8107,802.847 48.224,803.725 L 327.641,803.725 L 295.493,868.024 L 241.119,868.024 C 214.477,868.024 192.895,889.608 192.895,916.248 S 214.477,964.472 241.119,964.472 L 723.353,964.472 C 749.995,964.472 771.577,942.889 771.577,916.248 S 749.995,868.024 723.353,868.024 L 669,868.024 L 636.852,803.725 L 916.248,803.725 C 943.661,802.847 965.2,780 964.472,752.588 L 964.472,51.16 C 965.2,23.7253 943.661,0.878667 916.248,0 Z M 32.148,51.16 C 31.5267,41.5373 38.644,33.136 48.224,32.148 L 675.129,32.148 L 675.129,675.129 L 32.148,675.129 Z M 659.056,900.173 L 723.353,900.173 C 732.227,900.173 739.428,907.375 739.428,916.248 S 732.227,932.323 723.353,932.323 L 241.119,932.323 C 232.245,932.323 225.043,925.121 225.043,916.248 S 232.245,900.173 241.119,900.173 Z M 331.413,868.024 L 363.585,803.725 L 600.908,803.725 L 633.059,868.024 Z M 932.323,752.588 C 932.945,762.191 925.828,770.592 916.248,771.577 L 48.224,771.577 C 38.644,770.592 31.5267,762.191 32.148,752.588 L 32.148,707.28 L 932.323,707.28 Z M 932.323,675.129 L 707.28,675.129 L 707.28,32.148 L 916.248,32.148 C 925.828,33.136 932.945,41.5373 932.323,51.16 Z "/>
	<path id="dp_path002" transform="matrix(1,0,0,1,66.1376,66.2863)" fill="white" stroke="none" stroke-width="0" d="M 289.169,578.361 C 393.419,578.512 489.673,522.487 541.025,431.763 C 592.379,341.037 590.879,229.695 537.103,140.384 C 550.307,122.488 549.471,97.8627 535.088,80.908 C 520.708,63.9333 496.553,59.112 476.748,69.2067 C 379.316,-13.9307 238.804,-23.0827 131.425,46.724 C 24.0253,116.529 -24.6467,248.663 11.788,371.451 C 48.224,494.239 161.089,578.425 289.169,578.361 Z M 497.325,272.945 C 489.309,170.369 407.821,88.8813 305.245,80.8653 L 305.245,32.6427 C 360.071,35.9653 412.365,56.9253 454.331,92.3747 C 451.459,98.5907 449.937,105.364 449.916,112.2 C 449.916,124.996 454.995,137.255 464.039,146.299 C 473.084,155.344 485.344,160.423 498.14,160.423 C 502.34,160.359 506.541,159.759 510.592,158.601 C 531.231,193.387 543.297,232.567 545.783,272.945 Z M 144.499,401.541 C 153.372,401.541 160.573,408.743 160.573,417.616 S 153.372,433.691 144.499,433.691 S 128.425,426.489 128.425,417.616 S 135.627,401.541 144.499,401.541 Z M 144.499,369.393 C 140.577,369.457 136.676,369.993 132.883,371 C 105.213,318.961 105.535,256.528 133.697,204.768 L 174.163,231.795 C 149.192,281.904 159.523,342.408 199.709,381.416 C 239.875,420.403 300.659,428.933 350.017,402.484 C 399.356,376.016 425.933,320.676 415.687,265.637 C 405.464,210.597 360.799,168.483 305.245,161.539 L 305.245,113.015 C 398.991,122.06 469.183,202.989 464.896,297.079 C 460.611,391.147 383.345,465.347 289.169,465.84 C 253.528,465.989 218.699,455.231 189.336,435.02 C 195.231,420.211 193.365,403.449 184.364,390.289 C 175.384,377.131 160.444,369.308 144.499,369.393 Z M 208.797,235.611 C 235.224,195.745 286.876,181.3 330.171,201.617 S 395.305,270.909 381.524,316.711 S 322.497,391.276 275.175,384.353 S 192.765,336.836 192.723,289.02 C 192.701,270.009 198.295,251.427 208.797,235.568 Z M 273.095,161.432 C 241.589,165.419 212.655,180.892 191.865,204.917 L 151.721,178.107 C 181.749,140.941 225.537,117.537 273.095,113.208 Z M 514.213,112.2 C 514.213,121.073 507.012,128.275 498.14,128.275 S 482.064,121.073 482.064,112.2 S 489.267,96.1253 498.14,96.1253 S 514.213,103.328 514.213,112.2 Z M 75.228,146.364 C 119.723,79.4933 192.937,37.3147 273.095,32.3213 L 273.095,81.0373 C 202.432,86.416 139.333,127.268 105.513,189.551 C 71.692,251.813 71.7773,326.999 105.749,389.175 C 91.988,407.413 93.0173,432.833 108.215,449.893 S 148.507,470.94 168.225,459.409 C 229.567,503.048 309.66,510.271 377.816,478.313 S 491.645,380.152 497.325,305.095 L 545.548,305.095 C 536.911,443.679 419.76,550.349 280.961,545.997 C 142.184,541.668 31.9347,427.883 31.9773,289.02 C 31.8267,238.225 46.8947,188.523 75.228,146.364 Z "/>
	<path id="dp_path003" transform="matrix(1,0,0,1,741.096,65.9648)" fill="white" stroke="none" stroke-width="0" d="M 48.224,257.192 L 112.523,257.192 C 139.163,257.192 160.744,235.611 160.744,208.968 L 160.744,48.224 C 160.744,21.5827 139.163,0 112.523,0 L 48.224,0 C 21.5827,0 0,21.5827 0,48.224 L 0,208.968 C 0,235.611 21.5827,257.192 48.224,257.192 Z M 128.596,160.744 L 32.148,160.744 L 32.148,96.448 L 128.596,96.448 Z M 112.523,225.043 L 48.224,225.043 C 39.3507,225.043 32.148,217.841 32.148,208.968 L 32.148,192.895 L 128.596,192.895 L 128.596,208.968 C 128.596,217.841 121.395,225.043 112.523,225.043 Z M 48.224,32.148 L 112.523,32.148 C 121.395,32.148 128.596,39.3507 128.596,48.224 L 128.596,64.2987 L 32.148,64.2987 L 32.148,48.224 C 32.148,39.3507 39.3507,32.148 48.224,32.148 Z "/>
	<path id="dp_path004" transform="matrix(1,0,0,1,741.096,355.306)" fill="white" stroke="none" stroke-width="0" d="M 16.0747,32.148 L 32.148,32.148 C 41.0227,32.148 48.224,24.9467 48.224,16.0747 S 41.0227,0 32.148,0 L 16.0747,0 C 7.20133,0 0,7.20133 0,16.0747 S 7.20133,32.148 16.0747,32.148 Z "/>
	<path id="dp_path005" transform="matrix(1,0,0,1,821.469,355.306)" fill="white" stroke="none" stroke-width="0" d="M 64.2987,0 L 16.0747,0 C 7.20133,0 0,7.20133 0,16.0747 S 7.20133,32.148 16.0747,32.148 L 64.2987,32.148 C 73.1707,32.148 80.372,24.9467 80.372,16.0747 S 73.1707,0 64.2987,0 Z "/>
	<path id="dp_path006" transform="matrix(1,0,0,1,741.096,403.53)" fill="white" stroke="none" stroke-width="0" d="M 16.0747,32.148 L 32.148,32.148 C 41.0227,32.148 48.224,24.9467 48.224,16.0747 S 41.0227,0 32.148,0 L 16.0747,0 C 7.20133,0 0,7.20133 0,16.0747 S 7.20133,32.148 16.0747,32.148 Z "/>
	<path id="dp_path007" transform="matrix(1,0,0,1,821.469,403.53)" fill="white" stroke="none" stroke-width="0" d="M 64.2987,0 L 16.0747,0 C 7.20133,0 0,7.20133 0,16.0747 S 7.20133,32.148 16.0747,32.148 L 64.2987,32.148 C 73.1707,32.148 80.372,24.9467 80.372,16.0747 S 73.1707,0 64.2987,0 Z "/>
	<path id="dp_path008" transform="matrix(1,0,0,1,741.096,451.754)" fill="white" stroke="none" stroke-width="0" d="M 16.0747,32.148 L 32.148,32.148 C 41.0227,32.148 48.224,24.9467 48.224,16.0747 S 41.0227,0 32.148,0 L 16.0747,0 C 7.20133,0 0,7.20133 0,16.0747 S 7.20133,32.148 16.0747,32.148 Z "/>
	<path id="dp_path009" transform="matrix(1,0,0,1,821.469,451.754)" fill="white" stroke="none" stroke-width="0" d="M 64.2987,0 L 16.0747,0 C 7.20133,0 0,7.20133 0,16.0747 S 7.20133,32.148 16.0747,32.148 L 64.2987,32.148 C 73.1707,32.148 80.372,24.9467 80.372,16.0747 S 73.1707,0 64.2987,0 Z "/>
	<path id="dp_path010" transform="matrix(1,0,0,1,741.096,516.052)" fill="white" stroke="none" stroke-width="0" d="M 16.0747,128.596 L 144.671,128.596 C 153.544,128.596 160.744,121.395 160.744,112.523 L 160.744,16.0747 C 160.744,7.20133 153.544,0 144.671,0 S 128.596,7.20133 128.596,16.0747 L 128.596,96.448 L 96.448,96.448 L 96.448,48.224 C 96.448,39.3507 89.2453,32.148 80.372,32.148 S 64.2987,39.3507 64.2987,48.224 L 64.2987,96.448 L 32.148,96.448 L 32.148,80.372 C 32.148,71.5 24.9467,64.2987 16.0747,64.2987 S 0,71.5 0,80.372 L 0,112.523 C 0,121.395 7.20133,128.596 16.0747,128.596 Z "/>
</svg>