<?xml version="1.0" encoding="UTF-8" standalone="no"?>
<svg version="1.1" xmlns="http://www.w3.org/2000/svg" xmlns:xlink="http://www.w3.org/1999/xlink" width="774.661" height="742.831">
	<path id="dp_path001" transform="matrix(1,0,0,1,541.304,89.7147)" fill="white" stroke="none" stroke-width="0" d="M 64.9293,32.4653 C 64.9293,14.5653 50.364,0 32.4653,0 C 14.5653,0 0,14.5653 0,32.4653 S 14.5653,64.9293 32.4653,64.9293 C 50.364,64.9293 64.9293,50.364 64.9293,32.4653 Z M 27.8267,32.4653 C 27.8267,29.908 29.9093,27.8267 32.4653,27.8267 C 35.0213,27.8267 37.1027,29.9053 37.1027,32.4653 S 35.0213,37.1027 32.4653,37.1027 C 29.9093,37.1027 27.8267,35.024 27.8267,32.4653 Z "/>
	<path id="dp_path002" transform="matrix(1,0,0,1,3.328,3.328)" fill="white" stroke="white" stroke-width="6.66667" d="M 763.924,187.719 L 703.776,127.568 C 698.344,122.136 689.535,122.136 684.1,127.568 C 678.668,133.004 678.668,141.812 684.1,147.245 L 740.175,203.32 L 740.175,708.344 L 400.712,708.344 L 400.712,567.975 L 654.484,314.201 C 657.095,311.591 658.56,308.052 658.56,304.361 L 658.56,44.648 C 658.56,36.9613 652.331,30.736 644.647,30.736 L 606.94,30.736 L 580.28,4.07467 C 574.847,-1.35733 566.036,-1.35733 560.604,4.07467 L 533.943,30.736 L 384.929,30.736 C 381.24,30.736 377.7,32.2013 375.093,34.8093 L 146.209,263.696 C 140.776,269.132 140.776,277.94 146.209,283.373 C 151.643,288.804 160.453,288.804 165.885,283.373 L 390.696,58.56 L 630.732,58.56 L 630.732,298.596 L 377.064,552.268 C 376.995,552.335 273.625,655.707 273.625,655.707 L 33.5893,415.667 L 121.981,327.279 C 127.415,321.843 127.415,313.033 121.981,307.601 C 116.548,302.169 107.737,302.169 102.307,307.601 L 4.076,405.827 C -1.35733,411.263 -1.35733,420.071 4.076,425.504 L 263.788,685.217 C 266.505,687.933 270.067,689.291 273.625,689.291 S 280.748,687.933 283.463,685.217 L 372.883,595.797 L 372.883,722.253 C 372.883,729.94 379.112,736.168 386.796,736.168 L 754.087,736.168 C 761.771,736.168 767.999,729.94 767.999,722.253 L 767.999,197.559 C 768,193.867 766.535,190.328 763.924,187.719 Z "/>
	<path id="dp_path003" transform="matrix(1,0,0,1,133.184,220.119)" fill="white" stroke="white" stroke-width="6.66667" d="M 135.249,338.573 C 137.859,341.181 141.399,342.647 145.087,342.647 C 148.776,342.647 152.316,341.181 154.924,338.573 L 338.568,154.928 C 341.179,152.317 342.644,148.78 342.644,145.088 C 342.644,141.396 341.179,137.861 338.568,135.248 L 207.395,4.07467 C 201.963,-1.35733 193.151,-1.35733 187.72,4.07467 L 4.076,187.717 C 1.46667,190.328 0,193.868 0,197.557 S 1.46667,204.785 4.076,207.397 Z M 197.559,33.5893 L 309.056,145.088 L 145.087,309.057 L 33.588,197.56 Z "/>
</svg>