<?xml version="1.0" encoding="UTF-8" standalone="no"?>
<svg version="1.1" xmlns="http://www.w3.org/2000/svg" xmlns:xlink="http://www.w3.org/1999/xlink" width="690.996" height="650.731">
	<path id="dp_path001" transform="matrix(1,0,0,1,3.33333,331.051)" fill="white" stroke="white" stroke-width="6.66667" d="M 81.4893,0 L 20.812,0 C 9.33867,0 0,9.33333 0,20.8067 L 0,265.676 C 0,277.156 9.33867,286.489 20.812,286.489 L 81.4893,286.489 C 92.9693,286.489 102.303,277.156 102.303,265.676 L 102.303,20.8067 C 102.303,9.33333 92.9693,0 81.4893,0 Z M 82.688,265.681 C 82.688,266.339 82.1507,266.875 81.4893,266.875 L 20.812,266.875 C 20.1507,266.875 19.6147,266.339 19.6147,265.681 L 19.6147,20.8067 C 19.6147,20.1507 20.1507,19.6147 20.812,19.6147 L 81.4893,19.6147 C 82.1507,19.6147 82.688,20.1507 82.688,20.8067 Z "/>
	<path id="dp_path002" transform="matrix(1,0,0,1,125.436,365.941)" fill="white" stroke="white" stroke-width="10" d="M 553.299,49.9427 C 540.315,30.8533 514.157,25.8067 495.017,38.6667 L 361.111,128.285 L 332.043,126.656 L 331.283,118.979 C 328.455,90.536 306.715,67.8747 278.413,63.8747 C 278.329,63.8587 278.247,63.848 278.163,63.8373 L 169.184,51.2907 C 145.209,47.8853 122.455,39.952 101.548,27.724 C 73.8973,11.552 42.376,1.96267 10.4027,0.004 C 5.01733,-0.281333 0.345333,3.79067 0.012,9.19733 S 3.79867,19.2547 9.204,19.588 C 38.1267,21.3587 66.632,30.0253 91.6427,44.656 C 114.799,58.2027 140.001,66.9733 166.559,70.7333 C 166.647,70.744 166.731,70.7547 166.813,70.7653 L 275.783,83.312 C 295.048,86.0933 309.835,101.541 311.761,120.921 L 312.444,127.771 L 157.944,152.776 L 90.8813,136.317 C 85.616,135.02 80.3093,138.239 79.0227,143.504 C 77.7307,148.765 80.944,154.077 86.2093,155.369 L 155.209,172.301 C 155.976,172.489 156.761,172.583 157.543,172.583 C 158.069,172.583 158.595,172.541 159.111,172.457 L 323.632,145.833 L 363.288,148.057 C 365.419,148.181 367.523,147.599 369.293,146.416 L 505.944,54.9627 C 516.179,48.0827 530.147,50.7853 537.085,60.9733 C 543.424,70.2907 541.851,82.9627 533.376,90.4893 L 398.277,211.989 C 387.033,221.115 373.543,227.14 359.241,229.437 L 150.017,259.599 C 149.971,259.604 149.928,259.609 149.881,259.615 L 149.736,259.635 C 143.413,260.635 136.824,260.219 130.152,258.385 L 20.0747,216.703 C 15.0067,214.781 9.34533,217.333 7.424,222.4 C 5.50667,227.468 8.05867,233.129 13.1267,235.047 L 123.621,276.891 C 123.887,276.995 124.157,277.083 124.433,277.156 C 130.632,278.905 136.829,279.785 142.949,279.785 C 146.257,279.785 149.548,279.525 152.799,279.015 C 152.804,279.009 152.845,279.004 152.876,279 L 362.121,248.837 C 362.168,248.833 362.22,248.823 362.267,248.817 C 380.08,245.973 396.881,238.443 410.856,227.047 C 410.981,226.948 411.1,226.843 411.215,226.739 L 546.449,105.115 C 562.22,91.104 565.168,67.3853 553.299,49.9427 Z "/>
	<path id="dp_path003" transform="matrix(1,0,0,1,164.8,6.668)" fill="white" stroke="white" stroke-width="13.3333" d="M 342.209,126.892 L 301.188,120.845 C 297.661,112.812 293.185,104.928 287.628,96.9253 L 303.232,56.9707 C 306.123,49.412 303.144,41.0827 296.341,37.2747 L 237.432,2.26933 C 230.6,-1.88 221.723,-0.206667 216.772,6.212 L 191.208,39.8093 C 181.308,38.772 174.373,38.772 164.473,39.8093 L 138.895,6.16667 C 134.063,-0.101333 125.481,-1.80533 118.324,2.22533 L 59.5173,37.1707 C 52.8187,40.92 49.7667,49.352 52.4787,57.0147 L 68.0547,96.8653 C 62.6747,104.497 58.14,112.531 54.508,120.829 L 13.62,126.861 C 5.85467,127.869 0,134.732 0,142.808 L 0,212.892 C 0,220.985 5.85467,227.847 13.4867,228.809 L 54.508,234.856 C 58.036,242.889 62.512,250.773 68.068,258.776 L 52.464,298.731 C 49.5733,306.304 52.552,314.633 59.3547,318.428 L 118.487,353.581 C 121.007,354.989 123.733,355.671 126.415,355.671 C 131.188,355.671 135.827,353.521 138.939,349.476 L 164.488,315.879 C 172.373,316.737 183.369,316.737 191.237,315.879 L 216.817,349.52 C 221.633,355.775 230.215,357.493 237.388,353.477 L 254.431,343.34 C 257.943,341.251 259.099,336.701 257.009,333.189 C 254.92,329.676 250.371,328.505 246.857,330.611 L 228.585,340.524 L 200.471,303.548 C 198.871,301.444 196.292,300.377 193.624,300.688 C 184.644,301.844 171.099,301.844 162.117,300.688 C 159.465,300.392 156.871,301.444 155.271,303.548 L 125.927,340.747 L 66.7947,305.593 C 66.232,305.268 66.1427,304.556 66.336,304.067 L 83.3787,260.437 C 84.2973,258.065 83.956,255.412 82.46,253.368 C 75.568,243.897 70.396,234.739 66.6613,225.372 C 65.6827,222.912 63.46,221.163 60.852,220.779 L 15.6947,214.124 C 15.6507,214.124 14.9093,212.879 14.864,212.879 L 14.864,142.795 L 15.6947,141.535 L 60.852,134.88 C 63.4747,134.495 65.6827,132.745 66.6613,130.287 C 70.544,120.535 75.8347,111.139 82.4147,102.365 C 83.9413,100.32 84.312,97.6227 83.3787,95.2373 L 66.4093,51.8427 C 66.2013,51.22 66.3947,50.316 66.972,49.9893 L 127.172,15.1627 L 155.285,52.14 C 156.887,54.2293 159.465,55.296 162.132,54.9987 C 174.463,53.4133 181.308,53.4133 193.639,54.9987 C 196.321,55.3107 198.885,54.2427 200.485,52.14 L 229.829,14.956 L 288.947,50.0947 C 289.511,50.42 289.615,51.1307 289.421,51.62 L 272.379,95.2507 C 271.46,97.6213 271.801,100.275 273.297,102.32 C 280.189,111.789 285.361,120.948 289.096,130.315 C 290.075,132.776 292.297,134.524 294.905,134.909 L 340.063,141.564 C 340.107,141.579 340.848,142.823 340.893,142.823 L 340.893,212.908 L 340.063,214.152 L 311.104,218.42 C 307.044,219.013 304.243,222.777 304.849,226.824 C 305.443,230.869 309.177,233.715 313.253,233.077 L 342.064,228.824 C 349.829,227.831 355.699,220.985 355.699,212.892 L 355.699,142.808 C 355.681,134.732 349.843,127.869 342.209,126.892 Z "/>
	<path id="dp_path004" transform="matrix(1,0,0,1,268.543,110.396)" fill="white" stroke="white" stroke-width="10" d="M 160.471,105.52 C 152.2,97.2493 147.696,86.7573 148.14,76.7227 C 148.925,58.436 141.279,40.9773 124.755,23.356 C 110.616,8.284 91.6307,-0.266667 73.1653,0 C 56.7,0.208 41.0053,5.95733 27.7707,16.6427 C 25.8893,18.1693 24.8667,20.5107 25.0293,22.9267 C 25.2067,25.3413 26.5413,27.52 28.616,28.7507 L 73.9067,55.916 C 72.5587,69.5347 64.5107,81.4813 52.196,87.8533 L 11.648,63.5187 C 9.41067,62.1693 6.29733,62.2733 3.98533,63.5333 C 1.73333,64.764 0.281333,67.06 0.132,69.6093 C -1.08267,90.2693 6.04533,109.905 20.184,124.904 C 34.144,139.695 53.796,148.171 74.1147,148.171 C 79.568,148.171 85.0373,147.46 91.0387,145.933 L 185.635,240.531 C 192.971,247.881 202.723,251.912 213.112,251.912 C 234.527,251.912 251.94,234.484 251.94,213.068 C 251.94,202.695 247.895,192.943 240.557,185.607 Z M 213.109,237.107 L 213.08,237.107 C 206.664,237.107 200.631,234.603 196.096,230.068 L 98.448,132.417 C 97.0253,131.009 95.144,130.253 93.2013,130.253 C 92.476,130.253 91.764,130.343 91.0973,130.551 C 84.7547,132.463 79.3747,133.352 74.128,133.352 C 57.6187,133.352 42.3093,126.741 30.9867,114.737 C 22.5987,105.845 17.308,94.908 15.5147,83.1253 L 48.0747,102.659 C 50.2533,103.963 52.92,104.052 55.2027,102.94 L 58.3293,101.384 C 77.1947,91.944 88.932,72.9587 88.932,51.8547 C 88.932,49.2467 87.5547,46.8307 85.332,45.496 L 46.2067,22.0213 C 54.6093,17.3973 63.828,14.9227 73.3573,14.8053 C 87.6587,14.5973 102.656,21.4293 113.949,33.4787 C 127.791,48.2533 133.956,61.784 133.335,76.0707 C 132.712,90.2387 138.788,104.792 149.992,115.996 L 230.079,196.1 C 234.628,200.635 237.119,206.667 237.119,213.099 C 237.133,226.332 226.373,237.107 213.109,237.107 Z "/>
</svg>